<?xml version="1.0" standalone="no"?>
<!DOCTYPE svg PUBLIC "-//W3C//DTD SVG 20010904//EN"
 "http://www.w3.org/TR/2001/REC-SVG-20010904/DTD/svg10.dtd">
<svg version="1.0" xmlns="http://www.w3.org/2000/svg"
 width="937.000000pt" height="768.000000pt" viewBox="0 0 937.000000 768.000000"
 preserveAspectRatio="xMidYMid meet">

<g transform="translate(0.000000,768.000000) scale(0.100000,-0.100000)"
fill="#000000" stroke="none">
<path d="M3015 7541 c-788 -300 -1582 -924 -2092 -1644 -297 -419 -524 -910
-647 -1403 -106 -424 -149 -782 -149 -1254 0 -467 35 -761 134 -1127 166 -620
541 -1347 983 -1910 l81 -103 1053 0 c578 0 1052 2 1052 4 0 2 -37 26 -82 52
-237 135 -596 390 -858 609 -173 145 -497 463 -611 600 -457 548 -672 997
-793 1655 -150 819 -27 1627 356 2324 195 356 547 794 744 925 128 86 254 121
359 101 124 -24 217 -102 279 -234 28 -59 446 -1401 1719 -5529 97 -313 144
-452 149 -440 4 10 231 742 504 1628 1079 3503 1311 4249 1350 4332 99 209
277 291 483 224 109 -36 201 -103 342 -249 756 -780 1093 -1822 943 -2917
-112 -818 -421 -1426 -1048 -2063 -309 -314 -641 -582 -1052 -849 -78 -51
-172 -109 -210 -130 l-69 -38 1055 -3 1055 -3 28 33 c57 65 226 296 314 428
395 594 671 1228 787 1810 87 436 96 1006 25 1550 -121 935 -510 1766 -1137
2430 -424 450 -898 802 -1417 1055 -141 68 -350 156 -405 170 l-25 6 -509
-1733 c-280 -953 -621 -2115 -758 -2583 -289 -987 -256 -881 -268 -869 -4 5
-344 1143 -755 2529 -410 1386 -755 2550 -767 2588 -11 37 -25 67 -31 67 -7
-1 -57 -18 -112 -39z"/>
</g>
</svg>
